<svg width="174" height="144" viewBox="0 0 174 144" fill="none" xmlns="http://www.w3.org/2000/svg">
<path d="M13.1296 116.212C13.0834 114.84 12.3804 113.42 9.98184 113.42C7.92113 113.42 6.93694 114.745 6.93694 116.023C6.9831 117.679 8.85705 118.567 11.2934 119.288C15.4148 120.423 19.8636 121.652 19.9098 127.237C20.0042 132.584 15.5554 135.991 10.1686 135.991C6.18149 135.991 0.80097 133.909 0.333008 127.616H6.46898C6.70401 130.406 9.09208 130.975 10.263 130.975C12.1831 130.975 13.8305 129.702 13.7759 127.947C13.7759 125.723 11.8558 125.108 7.1237 123.452C3.6591 122.362 0.849231 120.423 0.800966 116.685C0.800966 111.575 5.06299 108.403 10.0343 108.403C13.501 108.403 18.6528 109.966 19.1669 116.212H13.1296Z" fill="white"/>
<path d="M48.9185 119.061C48.5509 117.208 47.8411 115.44 46.8258 113.85C46.671 113.614 46.514 113.368 46.3362 113.145C46.1533 113.351 45.9828 113.567 45.8256 113.793C44.0857 116.181 43.1435 119.062 43.1344 122.023V122.122C43.1379 123.127 42.9606 124.125 42.6112 125.067C42.5547 125.225 42.4878 125.38 42.4208 125.525C41.8118 126.896 40.8159 128.057 39.5567 128.864C38.2975 129.671 36.8303 130.089 35.3372 130.065C34.305 130.075 33.2813 129.876 32.3265 129.482C31.3716 129.088 30.5048 128.506 29.7769 127.77C29.0491 127.034 28.4749 126.16 28.0882 125.198C27.7016 124.236 27.5101 123.205 27.5253 122.168C27.4983 120.056 28.2875 118.016 29.7267 116.477C30.4447 115.728 31.3073 115.135 32.2616 114.733C33.2159 114.331 34.2418 114.129 35.2765 114.14C38.8926 114.14 41.2824 116.198 42.3915 118.69C42.8455 116.682 43.7092 114.79 44.9278 113.135C45.0989 112.875 45.2884 112.628 45.4949 112.396C45.5284 112.363 45.5619 112.318 45.6058 112.272C43.5592 109.971 40.5562 108.403 36.4965 108.403C32.2358 108.403 29.2559 110.383 27.4311 112.966V109.209H21.6909V144H27.8099V131.555C28.8436 133.2 31.5452 135.781 36.5509 135.781C40.2549 135.781 43.3813 134.294 45.5933 131.902C45.6707 131.834 45.7272 131.767 45.8025 131.691C45.9909 131.481 46.1687 131.271 46.3466 131.043C46.582 130.75 46.8013 130.444 47.0037 130.126C47.1816 129.859 47.349 129.579 47.5039 129.299L47.5373 129.232C47.6179 129.108 47.6879 128.977 47.7466 128.841C47.8115 128.729 47.868 128.605 47.9245 128.483C48.0228 128.273 48.1338 128.062 48.2007 127.835C48.2985 127.624 48.3845 127.407 48.4581 127.185C48.6729 126.553 48.8476 125.907 48.9813 125.252C49.0127 125.084 49.0462 124.905 49.0692 124.739C49.2066 123.933 49.2766 123.118 49.2784 122.3V122.065C49.255 121.054 49.1345 120.048 48.9185 119.061Z" fill="white"/>
<path d="M47.8 121.763L46.5817 122.526C46.5817 123.35 44.0255 123.727 43.8979 124.517C43.878 124.685 44.1551 125.417 44.1252 125.584C43.9976 126.242 46.175 125.482 45.9736 126.106C45.8998 126.328 46.6774 126.037 46.5717 126.249C46.4661 126.46 47.3893 126.511 47.2936 126.722C47.2397 126.844 46.6814 127.582 46.6176 127.693C46.5538 127.804 46.151 127.452 46.0753 127.576C46.0753 127.597 45.9297 127.909 45.9177 127.93C45.7702 128.209 46.2009 129.014 46.0314 129.282C45.832 129.594 46.1211 130.397 45.8978 130.687C45.7283 130.909 45.5588 131.12 45.3794 131.332C45.3156 131.399 45.2617 131.466 45.18 131.542L45.0643 131.387C44.8829 131.152 44.6935 130.907 44.534 130.661C43.3997 129.021 42.592 127.156 42.1592 125.18C42.223 125.035 42.2868 124.88 42.3406 124.723C42.6735 123.784 42.8424 122.79 42.8391 121.788L44.8849 121.683C44.8849 120.702 45.0703 121.035 45.2717 120.065C45.6526 118.205 45.5309 117.522 46.6435 115.939C46.7911 115.717 45.7104 113.065 45.8898 112.854C46.0593 113.076 46.2089 113.321 46.3564 113.556C47.3237 115.14 48 116.902 48.3503 118.748C48.5677 119.757 47.7881 120.782 47.8 121.763Z" fill="url(#paint0_radial_560_2154)"/>
<path d="M56.8365 108.403C52.6465 108.403 49.3499 109.951 47.0478 112.29C46.9684 112.36 46.8939 112.435 46.825 112.516C46.6278 112.718 46.4412 112.931 46.2657 113.154C46.082 113.361 45.9107 113.58 45.7528 113.809C44.0048 116.223 43.0583 119.135 43.0491 122.127V122.225C43.05 123.244 43.1621 124.26 43.3834 125.255C43.8023 127.173 44.609 128.983 45.7528 130.571C45.9083 130.798 46.087 131.024 46.2657 131.249C48.1327 128.865 49.1944 125.757 49.1944 122.412V122.174C49.1843 121.156 49.3663 120.146 49.7305 119.197C49.7851 119.039 49.8524 118.88 49.9197 118.733C50.5079 117.377 51.477 116.226 52.7067 115.422C53.9364 114.618 55.3725 114.198 56.8365 114.213C61.0602 114.213 64.4472 117.581 64.4472 122.18C64.4472 126.779 61.0602 130.16 56.8365 130.16C55.3944 130.172 53.9795 129.764 52.7607 128.984C51.542 128.204 50.571 127.086 49.9638 125.763C49.8363 126.427 49.6614 127.081 49.4403 127.719C49.3499 127.966 49.2616 128.204 49.1607 128.442C49.0598 128.68 48.9505 128.916 48.8475 129.142C48.7975 129.274 48.7377 129.403 48.6688 129.527C48.5903 129.698 48.5004 129.865 48.3997 130.024C48.2378 130.345 48.0552 130.655 47.853 130.951C47.6345 131.301 47.3958 131.636 47.1382 131.957L47.0373 132.091C49.3394 134.43 52.6465 135.991 56.8365 135.991C65.799 135.991 70.6366 128.916 70.6366 122.169C70.6366 115.48 65.799 108.403 56.8365 108.403Z" fill="white"/>
<path d="M96.4441 135.19H90.6263V131.745C89.539 133.774 87.2204 136.037 82.5386 135.991C74.0249 135.944 72.4163 129.481 72.4163 124.952V109.294H78.6113V123.397C78.6113 127.218 79.8829 130.236 84.2892 130.189C88.74 130.189 90.249 127.264 90.249 123.585V109.294H96.4441V135.19Z" fill="white"/>
<path d="M110.121 116.212C110.074 114.84 109.371 113.42 106.983 113.42C104.923 113.42 103.938 114.745 103.938 116.023C103.985 117.679 105.859 118.567 108.295 119.288C112.416 120.423 116.865 121.652 116.911 127.237C117.006 132.584 112.557 135.991 107.17 135.991C103.183 135.991 97.8024 133.909 97.3345 127.616H103.47C103.705 130.406 106.094 130.975 107.265 130.975C109.185 130.975 110.832 129.702 110.777 127.947C110.777 125.723 108.857 125.108 104.125 123.452C100.661 122.362 97.8507 120.423 97.8025 116.685C97.8025 111.575 102.064 108.403 107.036 108.403C110.502 108.403 115.654 109.966 116.168 116.212H110.121Z" fill="white"/>
<path d="M123.907 124.255C124.185 128.419 127.796 130.739 131.269 130.69C134.235 130.69 136.225 129.318 137.382 127.19H143.635C142.431 130.075 140.626 132.253 138.495 133.72C136.36 135.222 133.824 136.015 131.232 135.99C123.405 135.99 117.802 129.507 117.802 122.269C117.802 114.887 123.451 108.403 131.139 108.403C134.936 108.403 138.271 109.87 140.634 112.379C143.736 115.644 144.894 119.712 144.384 124.251L123.907 124.255ZM138.401 119.523C138.171 117.064 135.623 113.608 131.178 113.657C126.686 113.657 124.231 116.969 123.998 119.523H138.401Z" fill="white"/>
<path d="M173.865 135.192H168.032V131.474C166.911 133.402 164.477 135.99 159.248 135.99C151.358 135.99 146.28 129.781 146.28 122.255C146.28 113.882 152.21 108.556 159.164 108.556C164.067 108.556 166.819 111.191 167.754 112.695V100.394H173.868L173.865 135.192ZM152.394 122.255C152.394 126.631 155.52 130.205 160.235 130.205C161.291 130.211 162.338 130.007 163.316 129.603C164.293 129.199 165.182 128.605 165.93 127.853C167.356 126.319 168.142 124.291 168.125 122.189C168.108 120.088 167.289 118.073 165.838 116.563C165.106 115.836 164.238 115.262 163.284 114.874C162.331 114.486 161.311 114.292 160.283 114.303C155.288 114.303 152.394 118.16 152.394 122.207V122.255Z" fill="white"/>
<path d="M79.14 29.4764L104.732 3.8891C96.9088 0.270592 88.1636 -0.860507 79.6773 0.648593C71.1909 2.15769 63.3722 6.23428 57.2769 12.3278C51.8389 17.7658 47.9953 24.5898 46.1637 32.0584C44.3321 39.527 44.5825 47.3546 46.8877 54.691H94.9357L69.344 80.2783C77.1671 83.8958 85.912 85.0263 94.3981 83.5173C102.884 82.0082 110.703 77.9322 116.799 71.8395C122.237 66.4015 126.08 59.5776 127.912 52.109C129.744 44.6404 129.493 36.8127 127.188 29.4764H79.14Z" fill="white"/>
<mask id="mask0_560_2154" style="mask-type:luminance" maskUnits="userSpaceOnUse" x="44" y="-1" width="86" height="86">
<path d="M79.14 29.4764L104.732 3.8891C96.9088 0.270592 88.1636 -0.860507 79.6773 0.648593C71.1909 2.15769 63.3722 6.23428 57.2769 12.3278C51.8389 17.7658 47.9953 24.5898 46.1637 32.0584C44.3321 39.527 44.5825 47.3546 46.8877 54.691H94.9357L69.344 80.2783C77.1671 83.8958 85.912 85.0263 94.3981 83.5173C102.884 82.0082 110.703 77.9322 116.799 71.8395C122.237 66.4015 126.08 59.5776 127.912 52.109C129.744 44.6404 129.493 36.8127 127.188 29.4764H79.14Z" fill="white"/>
</mask>
<g mask="url(#mask0_560_2154)">
<path d="M46.383 54.7607C46.383 54.7607 49.276 0.794211 106.038 14.5458L118.982 1.77695L97.3248 -6.08496H37.854V54.7607H46.383Z" fill="url(#paint1_linear_560_2154)"/>
<path d="M127.668 30.4229C127.668 30.4229 124.773 84.3894 68.0322 70.6378L55.0935 83.4066L76.7421 91.2686H136.221V30.4229H127.668Z" fill="url(#paint2_linear_560_2154)"/>
</g>
<defs>
<radialGradient id="paint0_radial_560_2154" cx="0" cy="0" r="1" gradientUnits="userSpaceOnUse" gradientTransform="translate(49.2995 123.693) scale(11.176 11.7496)">
<stop stop-color="#341347"/>
<stop offset="0.04" stop-color="#341347" stop-opacity="0.91"/>
<stop offset="0.25" stop-color="#341347" stop-opacity="0.51"/>
<stop offset="0.46" stop-color="#341347" stop-opacity="0.23"/>
<stop offset="0.67" stop-color="#341347" stop-opacity="0.06"/>
<stop offset="0.88" stop-color="#341347" stop-opacity="0"/>
</radialGradient>
<linearGradient id="paint1_linear_560_2154" x1="78.4144" y1="56.5411" x2="78.4144" y2="-4.30122" gradientUnits="userSpaceOnUse">
<stop stop-color="#341347" stop-opacity="0.4"/>
<stop offset="0.23" stop-color="#341347" stop-opacity="0.2"/>
<stop offset="0.54" stop-color="#341347" stop-opacity="0.05"/>
<stop offset="0.88" stop-color="#341347" stop-opacity="0"/>
</linearGradient>
<linearGradient id="paint2_linear_560_2154" x1="95.6556" y1="28.6425" x2="95.6556" y2="89.4882" gradientUnits="userSpaceOnUse">
<stop stop-color="#341347" stop-opacity="0.4"/>
<stop offset="0.24" stop-color="#341347" stop-opacity="0.18"/>
<stop offset="0.52" stop-color="#341347" stop-opacity="0.04"/>
<stop offset="0.88" stop-color="#341347" stop-opacity="0"/>
</linearGradient>
</defs>
</svg>
