<svg width="111" height="92" viewBox="0 0 111 92" fill="none" xmlns="http://www.w3.org/2000/svg">
<mask id="mask0_796_886" style="mask-type:alpha" maskUnits="userSpaceOnUse" x="0" y="-1" width="111" height="93">
<path d="M8.17562 74.2466C8.14612 73.3702 7.69698 72.4627 6.16456 72.4627C4.84799 72.4627 4.21919 73.3093 4.21919 74.1261C4.24869 75.184 5.44594 75.7515 7.0025 76.2121C9.63564 76.9368 12.4779 77.7224 12.5074 81.2903C12.5678 84.7065 9.72547 86.8833 6.28388 86.8833C3.73654 86.8833 0.298977 85.5531 0 81.5328H3.92022C4.07038 83.3154 5.5961 83.6784 6.34421 83.6784C7.57095 83.6784 8.62341 82.8656 8.58856 81.7441C8.58856 80.3232 7.36181 79.9303 4.33852 78.8724C2.12502 78.1762 0.329811 76.9368 0.298975 74.5487C0.298975 71.2842 3.02195 69.2578 6.19808 69.2578C8.41292 69.2578 11.7044 70.2561 12.0328 74.2466H8.17562Z" fill="white"/>
<path d="M31.041 76.0667C30.8061 74.8828 30.3526 73.7536 29.704 72.7375C29.6051 72.587 29.5048 72.4298 29.3912 72.2873C29.2743 72.4186 29.1654 72.5568 29.0649 72.7012C27.9533 74.2271 27.3514 76.0679 27.3456 77.9591V78.0223C27.3478 78.6646 27.2346 79.3021 27.0113 79.904C26.9752 80.0048 26.9324 80.1042 26.8897 80.197C26.5005 81.0727 25.8643 81.8143 25.0598 82.3299C24.2553 82.8455 23.3179 83.1124 22.364 83.0974C21.7045 83.1034 21.0505 82.9767 20.4405 82.7249C19.8304 82.4731 19.2766 82.1013 18.8116 81.6312C18.3466 81.1611 17.9798 80.6023 17.7327 79.9876C17.4857 79.3729 17.3634 78.7148 17.373 78.0519C17.3558 76.7026 17.86 75.3993 18.7795 74.4162C19.2382 73.9377 19.7893 73.5584 20.399 73.3017C21.0087 73.0449 21.6642 72.916 22.3252 72.923C24.6355 72.923 26.1623 74.2375 26.8709 75.8302C27.161 74.547 27.7128 73.3384 28.4914 72.2806C28.6007 72.1147 28.7218 71.9571 28.8537 71.8088C28.8751 71.7873 28.8965 71.7591 28.9245 71.7295C27.617 70.2591 25.6984 69.2578 23.1047 69.2578C20.3826 69.2578 18.4787 70.5226 17.3128 72.173V69.7726H13.6455V92.0003H17.5548V84.049C18.2153 85.1 19.9414 86.7492 23.1394 86.7492C25.5059 86.7492 27.5033 85.7989 28.9165 84.2707C28.966 84.2277 29.0021 84.1847 29.0502 84.1363C29.1706 84.0019 29.2842 83.8675 29.3978 83.7224C29.5482 83.5348 29.6883 83.3392 29.8176 83.1364C29.9313 82.9657 30.0382 82.7869 30.1372 82.6082L30.1586 82.5652C30.21 82.4857 30.2548 82.4021 30.2923 82.3152C30.3337 82.2439 30.3698 82.1646 30.4059 82.0867C30.4688 81.9523 30.5396 81.8179 30.5824 81.6727C30.6449 81.5375 30.6998 81.3988 30.7469 81.2574C30.8841 80.8532 30.9957 80.4406 31.0811 80.0222C31.1012 79.9147 31.1225 79.8005 31.1373 79.6943C31.2251 79.1797 31.2698 78.6586 31.2709 78.1365V77.986C31.256 77.3403 31.179 76.6975 31.041 76.0667Z" fill="white"/>
<path d="M30.3264 77.7916L29.5481 78.2791C29.5481 78.8055 27.9149 79.0465 27.8334 79.5514C27.8206 79.6586 27.9977 80.126 27.9786 80.2332C27.8971 80.6537 29.2882 80.1675 29.1595 80.5666C29.1124 80.7086 29.6092 80.5224 29.5417 80.6577C29.4742 80.793 30.064 80.8251 30.0028 80.9604C29.9684 81.0381 29.6118 81.5095 29.571 81.5805C29.5302 81.6515 29.2729 81.4265 29.2245 81.5055C29.2245 81.5189 29.1315 81.7184 29.1239 81.7318C29.0296 81.9099 29.3047 82.4242 29.1965 82.5957C29.0691 82.7952 29.2538 83.3082 29.1111 83.493C29.0028 83.635 28.8945 83.7702 28.7799 83.9055C28.7391 83.9484 28.7047 83.9912 28.6525 84.0394L28.5786 83.9403C28.4627 83.7903 28.3417 83.6336 28.2398 83.4769C27.5151 82.4287 26.9991 81.2375 26.7225 79.9747C26.7633 79.8823 26.8041 79.7831 26.8385 79.6827C27.0512 79.083 27.1591 78.4478 27.1569 77.8077L28.464 77.7407C28.464 77.1139 28.5824 77.3269 28.7111 76.7068C28.9544 75.5188 28.8767 75.0822 29.5876 74.0711C29.6818 73.9291 28.9914 72.2349 29.106 72.0996C29.2143 72.2416 29.3098 72.3983 29.4041 72.5483C30.0221 73.5607 30.4542 74.6859 30.678 75.8657C30.8169 76.5099 30.3188 77.1648 30.3264 77.7916Z" fill="url(#paint0_radial_796_886)"/>
<path d="M36.0997 69.2578C33.4227 69.2578 31.3166 70.2468 29.8458 71.7412C29.795 71.7857 29.7474 71.8339 29.7034 71.8852C29.5774 72.0147 29.4582 72.1508 29.3461 72.2928C29.2287 72.4255 29.1193 72.5652 29.0184 72.7112C27.9016 74.2535 27.2969 76.1141 27.291 78.0257V78.0882C27.2916 78.7395 27.3632 79.3887 27.5046 80.0241C27.7723 81.2496 28.2877 82.406 29.0184 83.4204C29.1178 83.5657 29.2319 83.7097 29.3461 83.8537C30.5389 82.3308 31.2172 80.3447 31.2172 78.2077V78.0556C31.2108 77.4054 31.327 76.7599 31.5597 76.1537C31.5946 76.0531 31.6376 75.9512 31.6806 75.8575C32.0564 74.9911 32.6756 74.2555 33.4612 73.742C34.2469 73.2286 35.1644 72.9599 36.0997 72.9693C38.7982 72.9693 40.9621 75.1212 40.9621 78.0597C40.9621 80.9981 38.7982 83.1582 36.0997 83.1582C35.1784 83.1658 34.2744 82.9049 33.4957 82.4067C32.7171 81.9085 32.0967 81.194 31.7088 80.3488C31.6273 80.773 31.5156 81.1907 31.3743 81.5986C31.3166 81.7562 31.2602 81.9084 31.1957 82.0605C31.1312 82.2127 31.0614 82.3635 30.9956 82.5075C30.9636 82.5922 30.9254 82.6744 30.8814 82.7533C30.8312 82.8631 30.7738 82.9693 30.7095 83.0713C30.606 83.2762 30.4894 83.4741 30.3602 83.6636C30.2206 83.8866 30.0681 84.1012 29.9035 84.3061L29.8391 84.3917C31.3099 85.8861 33.4227 86.8833 36.0997 86.8833C41.8258 86.8833 44.9165 82.3635 44.9165 78.0529C44.9165 73.779 41.8258 69.2578 36.0997 69.2578Z" fill="white"/>
<path d="M61.4048 86.3699H57.6878V84.169C56.9932 85.4652 55.5118 86.9113 52.5207 86.8816C47.0813 86.8519 46.0536 82.7228 46.0536 79.8292V69.8252H50.0116V78.8354C50.0116 81.2767 50.824 83.2049 53.6391 83.1752C56.4827 83.1752 57.4468 81.3064 57.4468 78.9556V69.8252H61.4048V86.3699Z" fill="white"/>
<path d="M70.1424 74.2466C70.1129 73.3702 69.6638 72.4627 68.1381 72.4627C66.8215 72.4627 66.1927 73.3093 66.1927 74.1261C66.2222 75.184 67.4195 75.7515 68.976 76.2121C71.6092 76.9368 74.4514 77.7224 74.4809 81.2903C74.5413 84.7065 71.699 86.8833 68.2574 86.8833C65.7101 86.8833 62.2725 85.5531 61.9735 81.5328H65.8937C66.0439 83.3154 67.5696 83.6784 68.3177 83.6784C69.5445 83.6784 70.5969 82.8656 70.5621 81.7441C70.5621 80.3232 69.3353 79.9303 66.312 78.8724C64.0985 78.1762 62.3033 76.9368 62.2725 74.5487C62.2725 71.2842 64.9955 69.2578 68.1716 69.2578C70.3864 69.2578 73.6779 70.2561 74.0063 74.2466H70.1424Z" fill="white"/>
<path d="M78.9506 79.3856C79.1282 82.0459 81.435 83.5277 83.6543 83.4966C85.5488 83.4966 86.8202 82.6202 87.5599 81.2603H91.5544C90.7854 83.1038 89.632 84.4949 88.2705 85.4322C86.9066 86.3918 85.2863 86.8984 83.6304 86.8829C78.6298 86.8829 75.0503 82.7408 75.0503 78.1164C75.0503 73.3999 78.6589 69.2578 83.5708 69.2578C85.9969 69.2578 88.1273 70.1951 89.6373 71.7975C91.6193 73.8835 92.3591 76.4829 92.033 79.3829L78.9506 79.3856ZM88.2108 76.3623C88.0637 74.791 86.4357 72.5832 83.596 72.6143C80.7258 72.6143 79.1574 74.7301 79.0089 76.3623H88.2108Z" fill="white"/>
<path d="M110.868 86.3728H107.142V83.9976C106.425 85.2296 104.87 86.8831 101.529 86.8831C96.4887 86.8831 93.2443 82.9163 93.2443 78.1079C93.2443 72.7583 97.0326 69.3556 101.476 69.3556C104.608 69.3556 106.366 71.0388 106.964 72.0002V64.1406H110.87L110.868 86.3728ZM97.1502 78.1079C97.1502 80.9033 99.1479 83.187 102.16 83.187C102.835 83.191 103.504 83.0603 104.128 82.8023C104.753 82.5444 105.321 82.1644 105.799 81.6843C106.71 80.7042 107.212 79.4086 107.201 78.0658C107.19 76.723 106.667 75.4358 105.74 74.471C105.272 74.0065 104.717 73.6398 104.108 73.392C103.499 73.1443 102.847 73.0204 102.191 73.0276C98.9996 73.0276 97.1502 75.4917 97.1502 78.077V78.1079Z" fill="white"/>
<path d="M50.3493 18.8325L66.6996 2.48499C61.7016 0.17315 56.1144 -0.549499 50.6926 0.414652C45.2707 1.3788 40.2754 3.9833 36.3812 7.87641C32.9069 11.3507 30.4512 15.7105 29.281 20.4821C28.1108 25.2537 28.2708 30.2548 29.7436 34.9419H60.441L44.0907 51.2894C49.0888 53.6006 54.6759 54.3229 60.0976 53.3588C65.5193 52.3946 70.5146 49.7905 74.4092 45.898C77.8835 42.4237 80.3391 38.0639 81.5093 33.2923C82.6795 28.5206 82.5195 23.5196 81.0468 18.8325H50.3493Z" fill="white"/>
<mask id="mask1_796_886" style="mask-type:luminance" maskUnits="userSpaceOnUse" x="28" y="-1" width="55" height="55">
<path d="M50.3493 18.8325L66.6996 2.48499C61.7016 0.17315 56.1144 -0.549499 50.6926 0.414652C45.2707 1.3788 40.2754 3.9833 36.3812 7.87641C32.9069 11.3507 30.4512 15.7105 29.281 20.4821C28.1108 25.2537 28.2708 30.2548 29.7436 34.9419H60.441L44.0907 51.2894C49.0888 53.6006 54.6759 54.3229 60.0976 53.3588C65.5193 52.3946 70.5146 49.7905 74.4092 45.898C77.8835 42.4237 80.3391 38.0639 81.5093 33.2923C82.6795 28.5206 82.5195 23.5196 81.0468 18.8325H50.3493Z" fill="white"/>
</mask>
<g mask="url(#mask1_796_886)">
<path d="M29.4213 34.9851C29.4213 34.9851 31.2696 0.506373 67.5344 9.29217L75.8039 1.13424L61.9676 -3.88867H23.9722V34.9851H29.4213Z" fill="url(#paint1_linear_796_886)"/>
<path d="M81.3537 19.4355C81.3537 19.4355 79.5039 53.9143 43.2529 45.1285L34.9865 53.2864L48.8176 58.3094H86.8182V19.4355H81.3537Z" fill="url(#paint2_linear_796_886)"/>
</g>
</mask>
<g mask="url(#mask0_796_886)">
<rect x="-55.0205" y="-27.9619" width="238.121" height="165.061" fill="black"/>
</g>
<defs>
<radialGradient id="paint0_radial_796_886" cx="0" cy="0" r="1" gradientUnits="userSpaceOnUse" gradientTransform="translate(31.2844 79.0251) scale(7.14025 7.50675)">
<stop stop-color="#341347"/>
<stop offset="0.04" stop-color="#341347" stop-opacity="0.91"/>
<stop offset="0.25" stop-color="#341347" stop-opacity="0.51"/>
<stop offset="0.46" stop-color="#341347" stop-opacity="0.23"/>
<stop offset="0.67" stop-color="#341347" stop-opacity="0.06"/>
<stop offset="0.88" stop-color="#341347" stop-opacity="0"/>
</radialGradient>
<linearGradient id="paint1_linear_796_886" x1="49.8859" y1="36.1226" x2="49.8859" y2="-2.74906" gradientUnits="userSpaceOnUse">
<stop stop-color="#341347" stop-opacity="0.4"/>
<stop offset="0.23" stop-color="#341347" stop-opacity="0.2"/>
<stop offset="0.54" stop-color="#341347" stop-opacity="0.05"/>
<stop offset="0.88" stop-color="#341347" stop-opacity="0"/>
</linearGradient>
<linearGradient id="paint2_linear_796_886" x1="60.9012" y1="18.2981" x2="60.9012" y2="57.1719" gradientUnits="userSpaceOnUse">
<stop stop-color="#341347" stop-opacity="0.4"/>
<stop offset="0.24" stop-color="#341347" stop-opacity="0.18"/>
<stop offset="0.52" stop-color="#341347" stop-opacity="0.04"/>
<stop offset="0.88" stop-color="#341347" stop-opacity="0"/>
</linearGradient>
</defs>
</svg>
